<svg xmlns="http://www.w3.org/2000/svg" width="22.162" height="18" viewBox="0 0 22.162 18"><path d="M19.884,4.486c.014.2.014.394.014.591A12.834,12.834,0,0,1,6.975,18,12.836,12.836,0,0,1,0,15.959a9,9,0,0,0,1.1.058,9.1,9.1,0,0,0,5.639-1.94,4.553,4.553,0,0,1-4.247-3.151A5.888,5.888,0,0,0,3.347,11a4.821,4.821,0,0,0,1.195-.156A4.541,4.541,0,0,1,.9,6.385V6.327a4.583,4.583,0,0,0,2.053.578A4.55,4.55,0,0,1,1.547.829a12.908,12.908,0,0,0,9.365,4.754A5.163,5.163,0,0,1,10.8,4.541a4.547,4.547,0,0,1,7.861-3.108,8.945,8.945,0,0,0,2.882-1.1,4.519,4.519,0,0,1-2,2.5,9.071,9.071,0,0,0,2.615-.7A9.8,9.8,0,0,1,19.884,4.486Z" fill="#9b9b9b"></path></svg>